<svg width="146" height="146" viewBox="0 0 146 146" fill="none" xmlns="http://www.w3.org/2000/svg">
<g filter="url(#filter0_d_31_1029)">
<mask id="mask0_31_1029" style="mask-type:luminance" maskUnits="userSpaceOnUse" x="4" y="1" width="137" height="136">
<path fill-rule="evenodd" clip-rule="evenodd" d="M140.944 43.3559C140.944 41.7414 140.944 40.1268 140.935 38.5121C140.926 37.1519 140.911 35.7921 140.874 34.4326C140.794 31.4695 140.619 28.481 140.092 25.5509C139.558 22.5785 138.685 19.8122 137.31 17.1115C135.958 14.457 134.191 12.028 132.084 9.92216C129.977 7.81632 127.548 6.05129 124.892 4.70004C122.189 3.32437 119.419 2.45193 116.444 1.91767C113.513 1.39149 110.524 1.21704 107.561 1.13699C106.2 1.10018 104.84 1.08467 103.479 1.07625C101.864 1.06635 100.248 1.06717 98.6326 1.06717L79.8753 1H65.8463L47.4209 1.06717C45.8023 1.06717 44.1837 1.06635 42.5651 1.07625C41.2014 1.08467 39.8385 1.10018 38.4754 1.13699C35.5053 1.21704 32.5092 1.39166 29.5719 1.91849C26.5923 2.45259 23.8188 3.3247 21.1117 4.69938C18.4507 6.0508 16.0157 7.81599 13.9044 9.92216C11.7935 12.0278 10.024 14.4564 8.66946 17.1103C7.29033 19.8123 6.4159 22.5803 5.88016 25.5543C5.35267 28.4833 5.17788 31.4708 5.09751 34.4326C5.06087 35.7923 5.04502 37.1521 5.03677 38.5121C5.02687 40.1269 4.94385 42.1328 4.94385 43.7474L4.94434 61.9175L4.94385 76.0968L5.02769 94.653C5.02769 96.2698 5.02703 97.8866 5.03677 99.5034C5.04502 100.865 5.06087 102.227 5.09767 103.589C5.17788 106.555 5.353 109.548 5.88099 112.482C6.41656 115.459 7.29082 118.229 8.6688 120.933C10.0235 123.591 11.7933 126.023 13.9044 128.132C16.0156 130.241 18.4498 132.008 21.1104 133.362C23.8192 134.739 26.5939 135.613 29.5753 136.148C32.5114 136.675 35.5065 136.849 38.4754 136.93C39.8385 136.966 41.2016 136.982 42.5652 136.99C44.1838 137 45.8023 136.999 47.4209 136.999L66.0128 137H80.0767L98.6326 136.999C100.248 136.999 101.864 137 103.479 136.99C104.84 136.982 106.2 136.966 107.561 136.93C110.525 136.849 113.515 136.674 116.447 136.147C119.421 135.612 122.189 134.739 124.891 133.362C127.547 132.009 129.977 130.241 132.084 128.132C134.191 126.024 135.957 123.592 137.309 120.934C138.685 118.229 139.558 115.457 140.093 112.479C140.619 109.546 140.794 106.554 140.874 103.589C140.911 102.227 140.926 100.865 140.935 99.5034C140.945 97.8866 140.944 96.2698 140.944 94.653C140.944 94.653 140.943 76.4244 140.943 76.0968V61.9027C140.943 61.6607 140.944 43.3559 140.944 43.3559Z" fill="white"/>
</mask>
<g mask="url(#mask0_31_1029)">
<rect width="832" height="832" transform="translate(5.2876 0.763184)" fill="#989898"/>
<rect width="832" height="832" transform="translate(5.2876 0.763184)" fill="url(#paint0_linear_31_1029)"/>
<rect width="832" height="832" transform="translate(5.2876 0.763184)" fill="url(#paint1_radial_31_1029)"/>
<g filter="url(#filter1_f_31_1029)">
<path d="M99.3643 116.802C98.6774 121.895 93.6841 125.874 88.722 124.501C81.6517 122.556 73.4654 119.524 66.0994 118.959C65.1283 118.884 54.81 118.103 54.81 118.103C52.9848 117.973 51.2717 117.177 49.9969 115.867L30.5442 95.8728C28.4183 93.688 27.8429 90.4296 29.0921 87.651C29.0921 87.651 41.1206 61.2654 41.5673 59.8932C42.014 58.521 43.6536 46.5535 44.6251 40.1245C44.8827 38.4207 45.7254 36.8589 47.0088 35.7065L70.0208 15.0449C73.2224 12.1705 78.1919 12.5964 80.8553 15.9736L100.186 40.4839C101.28 41.8712 101.841 43.5951 101.849 45.3602C101.871 50.0039 102.255 59.5378 104.827 65.6784C107.33 71.6513 111.922 78.1021 114.322 81.2762C115.243 82.4946 115.384 84.1419 114.606 85.4558C112.912 88.3184 109.565 93.8147 104.827 100.867C101.561 105.729 100.047 111.74 99.3643 116.802Z" fill="#BF9FFF" fill-opacity="0.73"/>
</g>
<path d="M98.6756 115.788C97.9868 120.904 92.9797 124.901 88.0038 123.521C80.9139 121.568 72.705 118.522 65.3186 117.954C64.3448 117.879 53.998 117.095 53.998 117.095C52.1677 116.964 50.4499 116.165 49.1716 114.849L29.665 94.7633C27.5333 92.5686 26.9562 89.2955 28.2089 86.5042C28.2089 86.5042 40.2706 59.9987 40.7186 58.6203C41.1666 57.2419 42.8107 45.22 43.7849 38.7617C44.0432 37.0502 44.8882 35.4813 46.1752 34.3237L69.2508 13.5682C72.4613 10.6807 77.4445 11.1086 80.1154 14.5011L99.5 39.1228C100.597 40.5164 101.159 42.2482 101.167 44.0212C101.189 48.6861 101.574 58.2632 104.154 64.4317C106.663 70.4319 111.268 76.9119 113.675 80.1005C114.598 81.3243 114.74 82.9791 113.96 84.2991C112.261 87.1747 108.905 92.696 104.154 99.78C100.878 104.664 99.3601 110.702 98.6756 115.788Z" fill="#6C31E3"/>
<path d="M51.2735 116.367C60.3323 97.976 60.0796 84.8007 56.2249 75.3979C52.6773 66.7453 46.0791 61.2876 40.8784 57.9005C40.7689 58.3898 40.6101 58.8675 40.4044 59.3261L28.2085 86.5042C26.9559 89.2955 27.5329 92.5687 29.6647 94.7634L49.1712 114.849C49.7832 115.479 50.4959 115.99 51.2735 116.367Z" fill="url(#paint2_radial_31_1029)"/>
<path d="M88.0062 123.518C92.981 124.898 97.9874 120.902 98.6761 115.785C99.2693 111.381 100.487 106.261 102.931 101.796C97.3238 89.7265 90.5435 83.4676 83.1107 80.6936C75.2428 77.7572 66.6438 78.7253 57.9311 80.8411C59.8789 89.7048 58.713 101.281 51.2837 116.365C52.1297 116.775 53.0521 117.024 54.0052 117.092C54.0052 117.092 59.3661 117.544 65.7417 117.995C72.1172 118.446 81.6048 121.743 88.0062 123.518Z" fill="url(#paint3_radial_31_1029)"/>
<path d="M75.9259 79.0392C78.3739 79.2949 80.7731 79.8225 83.1083 80.6937C90.5425 83.468 97.3243 89.7271 102.932 101.795C103.309 101.106 103.716 100.433 104.154 99.7799C108.905 92.6959 112.261 87.1746 113.96 84.299C114.74 82.979 114.598 81.3242 113.674 80.1004C111.268 76.9118 106.663 70.4318 104.154 64.4317C101.574 58.2632 101.189 48.686 101.167 44.0211C101.159 42.2481 100.597 40.5163 99.4998 39.1228L80.1152 14.501C80.0117 14.3694 79.9044 14.2422 79.794 14.1195C81.2164 18.7808 81.12 22.5305 80.2425 25.9392C79.4291 29.0992 77.944 31.9662 76.3755 34.9945L76.3752 34.9949C75.849 36.0106 75.3137 37.0444 74.7908 38.1137C72.7097 42.3707 70.8307 47.1881 70.5536 53.6479C70.2762 60.108 71.6006 68.2105 75.9265 79.0389L75.9259 79.0392Z" fill="url(#paint4_radial_31_1029)"/>
<path d="M75.9232 79.039C71.5976 68.2109 70.2727 60.1081 70.55 53.6477C70.8274 47.1873 72.7064 42.37 74.7878 38.1127C75.3107 37.0432 75.8462 36.0094 76.3725 34.9935C77.9407 31.9651 79.4258 29.0984 80.2392 25.9387C81.1167 22.5292 81.2131 18.7785 79.7894 14.1152C77.0547 11.0801 72.3341 10.7941 69.2498 13.5682L46.1742 34.3237C44.8871 35.4813 44.0421 37.0502 43.7839 38.7617L40.9748 57.383C40.9487 57.5558 40.9165 57.7274 40.8784 57.898C46.0793 61.2851 52.6786 66.7434 56.2264 75.3971C56.9194 77.0874 57.496 78.8991 57.9231 80.8416C64.0505 79.3536 70.1221 78.4334 75.9232 79.039Z" fill="url(#paint5_radial_31_1029)"/>
<path fill-rule="evenodd" clip-rule="evenodd" d="M70.5952 53.2223C70.3171 59.6306 71.117 66.9818 75.4336 77.7875L74.0782 77.6652C70.2054 66.3892 69.3626 60.6078 69.6446 54.1107C69.9269 47.6107 72.0271 42.6123 74.1202 38.3486C74.6503 37.2688 75.8872 35.2411 76.4164 34.2232C77.9836 31.2097 79.0266 29.6177 79.9222 26.8632C81.1737 23.0143 80.9029 21.1914 80.7603 19.3772C81.7538 25.9353 77.9824 31.6379 75.1311 37.446C73.0542 41.6771 70.8731 46.817 70.5952 53.2223Z" fill="url(#paint6_radial_31_1029)"/>
<path fill-rule="evenodd" clip-rule="evenodd" d="M57.5012 75.8744C58.0132 77.0583 58.4968 78.0142 58.8021 79.479L57.6709 79.7333C57.2003 78.0229 56.8366 76.8061 56.1853 75.3389C52.2874 66.1429 46.0318 61.4127 40.9196 57.9432C47.0945 61.2653 53.4323 66.4651 57.5012 75.8744Z" fill="url(#paint7_radial_31_1029)"/>
<path fill-rule="evenodd" clip-rule="evenodd" d="M58.8678 80.6361C61.0277 90.6873 58.6181 103.457 51.5172 115.869C57.4526 103.568 60.3299 91.7528 57.9336 80.8365L58.8678 80.6361Z" fill="url(#paint8_radial_31_1029)"/>
<path fill-rule="evenodd" clip-rule="evenodd" d="M83.3762 79.732C95.0187 84.0889 99.5015 93.6553 102.852 101.635C98.7139 93.2791 92.9607 84.0507 82.9585 80.6253C75.348 78.0188 68.9206 78.3279 57.9328 80.8216L57.6879 79.732C69.3492 77.0751 75.4462 76.7644 83.3762 79.732Z" fill="url(#paint9_radial_31_1029)"/>
<g style="mix-blend-mode:screen" filter="url(#filter2_i_31_1029)">
<path fill-rule="evenodd" clip-rule="evenodd" d="M141 43.3559C141 41.7414 141.001 40.1268 140.991 38.5121C140.983 37.1519 140.967 35.7921 140.93 34.4326C140.85 31.4695 140.675 28.481 140.148 25.5509C139.614 22.5785 138.741 19.8122 137.366 17.1115C136.014 14.457 134.248 12.028 132.14 9.92216C130.033 7.81632 127.604 6.05129 124.948 4.70004C122.245 3.32437 119.476 2.45193 116.5 1.91767C113.569 1.39149 110.58 1.21704 107.617 1.13699C106.257 1.10018 104.896 1.08467 103.535 1.07625C101.92 1.06635 100.304 1.06717 98.6888 1.06717L79.9315 1H65.9025L47.4771 1.06717C45.8585 1.06717 44.2398 1.06635 42.6212 1.07625C41.2576 1.08467 39.8946 1.10018 38.5315 1.13699C35.5615 1.21704 32.5654 1.39166 29.628 1.91849C26.6484 2.45259 23.875 3.3247 21.1679 4.69938C18.5068 6.0508 16.0719 7.81599 13.9606 9.92216C11.8496 12.0278 10.0802 14.4564 8.72561 17.1103C7.34648 19.8123 6.47206 22.5803 5.93631 25.5543C5.40882 28.4833 5.23404 31.4708 5.15366 34.4326C5.11702 35.7923 5.10117 37.1521 5.09292 38.5121C5.08302 40.1269 5 42.1328 5 43.7474L5.0005 61.9175L5 76.0968L5.08384 94.653C5.08384 96.2698 5.08318 97.8866 5.09292 99.5034C5.10117 100.865 5.11702 102.227 5.15382 103.589C5.23404 106.555 5.40915 109.548 5.93714 112.482C6.47272 115.459 7.34697 118.229 8.72495 120.933C10.0797 123.591 11.8495 126.023 13.9606 128.132C16.0717 130.241 18.506 132.008 21.1665 133.362C23.8753 134.739 26.6501 135.613 29.6315 136.148C32.5675 136.675 35.5626 136.849 38.5315 136.93C39.8946 136.966 41.2578 136.982 42.6214 136.99C44.24 137 45.8585 136.999 47.4771 136.999L66.069 137H80.1328L98.6888 136.999C100.304 136.999 101.92 137 103.535 136.99C104.896 136.982 106.257 136.966 107.617 136.93C110.581 136.849 113.572 136.674 116.503 136.147C119.477 135.612 122.245 134.739 124.947 133.362C127.603 132.009 130.033 130.241 132.14 128.132C134.247 126.024 136.013 123.592 137.365 120.934C138.741 118.229 139.614 115.457 140.149 112.479C140.676 109.546 140.85 106.554 140.93 103.589C140.967 102.227 140.983 100.865 140.991 99.5034C141.001 97.8866 141 96.2698 141 94.653C141 94.653 140.999 76.4244 140.999 76.0968V61.9027C140.999 61.6607 141 43.3559 141 43.3559Z" fill="black"/>
</g>
</g>
</g>
<defs>
<filter id="filter0_d_31_1029" x="-0.0561523" y="0" width="146" height="146" filterUnits="userSpaceOnUse" color-interpolation-filters="sRGB">
<feFlood flood-opacity="0" result="BackgroundImageFix"/>
<feColorMatrix in="SourceAlpha" type="matrix" values="0 0 0 0 0 0 0 0 0 0 0 0 0 0 0 0 0 0 127 0" result="hardAlpha"/>
<feOffset dy="4"/>
<feGaussianBlur stdDeviation="2.5"/>
<feComposite in2="hardAlpha" operator="out"/>
<feColorMatrix type="matrix" values="0 0 0 0 0 0 0 0 0 0 0 0 0 0 0 0 0 0 0.25 0"/>
<feBlend mode="normal" in2="BackgroundImageFix" result="effect1_dropShadow_31_1029"/>
<feBlend mode="normal" in="SourceGraphic" in2="effect1_dropShadow_31_1029" result="shape"/>
</filter>
<filter id="filter1_f_31_1029" x="10.4392" y="-4.86255" width="122.672" height="147.637" filterUnits="userSpaceOnUse" color-interpolation-filters="sRGB">
<feFlood flood-opacity="0" result="BackgroundImageFix"/>
<feBlend mode="normal" in="SourceGraphic" in2="BackgroundImageFix" result="shape"/>
<feGaussianBlur stdDeviation="9" result="effect1_foregroundBlur_31_1029"/>
</filter>
<filter id="filter2_i_31_1029" x="5" y="1" width="136" height="138" filterUnits="userSpaceOnUse" color-interpolation-filters="sRGB">
<feFlood flood-opacity="0" result="BackgroundImageFix"/>
<feBlend mode="normal" in="SourceGraphic" in2="BackgroundImageFix" result="shape"/>
<feColorMatrix in="SourceAlpha" type="matrix" values="0 0 0 0 0 0 0 0 0 0 0 0 0 0 0 0 0 0 127 0" result="hardAlpha"/>
<feOffset dy="6"/>
<feGaussianBlur stdDeviation="1"/>
<feComposite in2="hardAlpha" operator="arithmetic" k2="-1" k3="1"/>
<feColorMatrix type="matrix" values="0 0 0 0 1 0 0 0 0 1 0 0 0 0 1 0 0 0 1 0"/>
<feBlend mode="normal" in2="shape" result="effect1_innerShadow_31_1029"/>
</filter>
<linearGradient id="paint0_linear_31_1029" x1="416" y1="28.7868" x2="416" y2="756.904" gradientUnits="userSpaceOnUse">
<stop stop-color="white" stop-opacity="0.88"/>
<stop offset="1" stop-color="white" stop-opacity="0"/>
</linearGradient>
<radialGradient id="paint1_radial_31_1029" cx="0" cy="0" r="1" gradientUnits="userSpaceOnUse" gradientTransform="translate(416 43.9389) rotate(90) scale(661.643 1075.08)">
<stop stop-color="white" stop-opacity="0.95"/>
<stop offset="1" stop-color="white" stop-opacity="0.88"/>
</radialGradient>
<radialGradient id="paint2_radial_31_1029" cx="0" cy="0" r="1" gradientUnits="userSpaceOnUse" gradientTransform="translate(50.2992 114.551) rotate(-104.574) scale(51.0267 34.0041)">
<stop stop-color="white" stop-opacity="0.4"/>
<stop offset="1" stop-opacity="0.1"/>
</radialGradient>
<radialGradient id="paint3_radial_31_1029" cx="0" cy="0" r="1" gradientTransform="matrix(-21.1043 -35.7025 40.9909 -24.2368 88.3965 123.794)" gradientUnits="userSpaceOnUse">
<stop stop-color="white" stop-opacity="0.3"/>
<stop offset="1" stop-opacity="0.25"/>
</radialGradient>
<radialGradient id="paint4_radial_31_1029" cx="0" cy="0" r="1" gradientUnits="userSpaceOnUse" gradientTransform="translate(93.7894 93.5701) rotate(-82.4846) scale(83.7325 61.8621)">
<stop stop-color="white" stop-opacity="0.55"/>
<stop offset="1" stop-color="white" stop-opacity="0.05"/>
</radialGradient>
<radialGradient id="paint5_radial_31_1029" cx="0" cy="0" r="1" gradientUnits="userSpaceOnUse" gradientTransform="translate(53.3568 78.8695) rotate(-77.7214) scale(71.5031 48.7634)">
<stop stop-color="white" stop-opacity="0.83"/>
<stop offset="1" stop-color="white" stop-opacity="0.4"/>
</radialGradient>
<radialGradient id="paint6_radial_31_1029" cx="0" cy="0" r="1" gradientUnits="userSpaceOnUse" gradientTransform="translate(82.8375 39.6883) rotate(102.236) scale(37.2046 25.0885)">
<stop stop-color="white" stop-opacity="0"/>
<stop offset="1" stop-color="white" stop-opacity="0.17"/>
</radialGradient>
<radialGradient id="paint7_radial_31_1029" cx="0" cy="0" r="1" gradientUnits="userSpaceOnUse" gradientTransform="translate(39.2499 59.8392) rotate(45.3237) scale(27.4141 58.3894)">
<stop stop-color="white" stop-opacity="0.2"/>
<stop offset="1" stop-color="white" stop-opacity="0.44"/>
</radialGradient>
<radialGradient id="paint8_radial_31_1029" cx="0" cy="0" r="1" gradientUnits="userSpaceOnUse" gradientTransform="translate(59.9467 72.8111) rotate(80.2016) scale(32.131 68.2319)">
<stop stop-color="white" stop-opacity="0.12"/>
<stop offset="1" stop-color="white" stop-opacity="0.35"/>
</radialGradient>
<radialGradient id="paint9_radial_31_1029" cx="0" cy="0" r="1" gradientUnits="userSpaceOnUse" gradientTransform="translate(102.551 99.0458) rotate(-152.297) scale(48.9599 154.074)">
<stop stop-color="white" stop-opacity="0.21"/>
<stop offset="0.46738" stop-color="white" stop-opacity="0.19"/>
<stop offset="1" stop-color="white" stop-opacity="0.29"/>
</radialGradient>
</defs>
</svg>
