<svg width="80" height="40" viewBox="0 0 80 40" fill="none" xmlns="http://www.w3.org/2000/svg">
<path d="M31.2254 11.8809L27.7695 32.1612H33.2966L36.7554 11.8809H31.2254Z" fill="#272A32"/>
<path d="M23.1394 11.9047L17.726 25.7352L17.1488 23.6469C16.0812 21.1307 13.0504 17.5171 9.49219 15.2397L14.4421 32.1523L20.2905 32.1423L28.9949 11.9004L23.1394 11.9047Z" fill="#272A32"/>
<path d="M15.0485 13.3546C14.7273 12.1193 13.7961 11.7511 12.6404 11.707H4.07108L4 12.1108C10.6686 13.7285 15.0812 17.6265 16.9122 22.3135L15.0485 13.3546Z" fill="#272A32"/>
<path d="M47.9599 15.7695C49.7681 15.7411 51.0788 16.1363 52.0967 16.5457L52.5957 16.7803L53.3434 12.3847C52.2488 11.9739 50.533 11.5332 48.392 11.5332C42.9303 11.5332 39.0807 14.284 39.0508 18.226C39.0153 21.1388 41.7931 22.7651 43.8913 23.7361C46.045 24.7312 46.7672 25.3638 46.7572 26.2523C46.7402 27.6099 45.04 28.2325 43.452 28.2325C41.2386 28.2325 40.063 27.9269 38.2476 27.1706L37.5354 26.8465L36.7578 31.3856C38.0515 31.9528 40.4383 32.4404 42.9161 32.466C48.7261 32.466 52.5018 29.7479 52.5417 25.5358C52.5658 23.2314 51.0916 21.4729 47.8973 20.03C45.964 19.0889 44.7812 18.4634 44.7926 17.5138C44.7926 16.6708 45.7962 15.7695 47.9599 15.7695Z" fill="#272A32"/>
<path d="M67.5293 11.9043H63.2588C61.9325 11.9043 60.9459 12.2654 60.363 13.5875L52.1562 32.1732H57.9606C57.9606 32.1732 58.9073 29.6741 59.122 29.1268C59.7575 29.1268 65.3969 29.1353 66.2001 29.1353C66.365 29.8433 66.8739 32.1732 66.8739 32.1732H72.0016L67.5293 11.9043ZM60.7128 24.9758C61.1677 23.8115 62.9148 19.3079 62.9148 19.3079C62.8849 19.3633 63.3654 18.1351 63.6512 17.3717L64.0236 19.1203C64.0236 19.1203 65.0827 23.9622 65.3045 24.9758H60.7128Z" fill="#272A32"/>
</svg>
