<svg width="35" height="33" viewBox="0 0 35 33" fill="none" xmlns="http://www.w3.org/2000/svg">
<rect width="34.0995" height="32.2367" rx="10" fill="#AF7EE7"/>
<path d="M19.0818 14.3777H22.7151V13.2666C22.7151 12.0444 21.6251 11.0444 20.2929 11.0444H13.0262C11.694 11.0444 10.604 12.0444 10.604 13.2666V18.8221C10.604 20.0444 11.694 21.0444 13.0262 21.0444H20.2929C21.6251 21.0444 22.7151 20.0444 22.7151 18.8221V17.711H19.0818C18.4157 17.711 17.8707 17.211 17.8707 16.5999V15.4888C17.8707 14.8777 18.4157 14.3777 19.0818 14.3777Z" stroke="#212121" stroke-width="1.66667" stroke-miterlimit="10" stroke-linecap="round" stroke-linejoin="round"/>
<path d="M19.4401 16.5982C20.023 16.5982 20.4956 16.3494 20.4956 16.0426C20.4956 15.7358 20.023 15.4871 19.4401 15.4871C18.8571 15.4871 18.3845 15.7358 18.3845 16.0426C18.3845 16.3494 18.8571 16.5982 19.4401 16.5982Z" fill="#212121"/>
<path d="M21.718 14.3777V17.711" stroke="#212121" stroke-width="1.66667" stroke-miterlimit="10" stroke-linecap="round" stroke-linejoin="round"/>
</svg>
