<svg width="35" height="33" viewBox="0 0 35 33" fill="none" xmlns="http://www.w3.org/2000/svg">
<rect width="34.0995" height="32.2367" rx="10" fill="#AF7EE7"/>
<path fill-rule="evenodd" clip-rule="evenodd" d="M12.7984 23.117L16.9902 21.0531L21.1819 23.117C21.9192 23.4801 22.7553 22.8481 22.6073 22.0398L21.8242 17.7637L25.0797 14.7916C25.7062 14.2197 25.3808 13.1766 24.5403 13.0622L19.9778 12.4413L17.8748 8.45056C17.4998 7.73881 16.4805 7.73881 16.1055 8.45056L14.0025 12.4413L9.44 13.0622C8.5995 13.1766 8.27417 14.2197 8.90062 14.7916L12.1561 17.7637L11.373 22.0398C11.225 22.8481 12.0611 23.4801 12.7984 23.117ZM20.7642 21.1547L16.9915 19.2971L13.2189 21.1547L13.9394 17.2202L10.8873 14.4338L15.1052 13.8598L16.9915 10.2801L18.8778 13.8598L23.0958 14.4338L20.0437 17.2202L20.7642 21.1547Z" fill="url(#paint0_linear_288_1146)"/>
<defs>
<linearGradient id="paint0_linear_288_1146" x1="16.9902" y1="7.91675" x2="16.9902" y2="23.222" gradientUnits="userSpaceOnUse">
<stop stop-color="#252525"/>
<stop offset="1" stop-color="#2C2C2C"/>
</linearGradient>
</defs>
</svg>
