<svg width="249" height="45" viewBox="0 0 249 45" fill="none" xmlns="http://www.w3.org/2000/svg">
<path d="M12.9419 26.2721C14.14 25.9289 16.0703 25.4012 18.2899 25.2704C16.9583 22.0362 16.6369 19.206 16.8954 16.686C17.194 13.7758 18.2604 11.3468 19.2999 9.28003C19.5218 8.83902 19.735 8.42839 19.9395 8.03446C20.2291 7.47674 20.5013 6.95249 20.7559 6.4229C21.1798 5.54129 21.4943 4.76274 21.6533 4.03939C21.8097 3.32813 21.8105 2.69287 21.6256 2.08355C21.4405 1.47338 21.0471 0.816587 20.299 0.096673C19.3221 -0.14689 18.2383 0.0669417 17.4257 0.770404L7.782 9.11931C7.2441 9.58499 6.891 10.216 6.78309 10.9046L5.95158 16.2096C7.25906 17.3218 10.4861 20.555 12.4489 25.0413C12.6241 25.4416 12.7892 25.8521 12.9419 26.2721Z" fill="white"/>
<path d="M5.56163 18.6323C5.51617 18.819 5.45218 19.0013 5.37046 19.1766L0.273595 30.109C-0.249903 31.2319 -0.00874723 32.5485 0.882148 33.4314L8.90316 41.3807C12.9992 35.5655 12.402 30.0948 10.531 25.8184C9.11239 22.5759 6.96225 20.0382 5.56163 18.6323Z" fill="white"/>
<path d="M10.7562 42.3173C10.8968 42.3388 11.0393 42.3518 11.1829 42.3559C12.7051 42.3999 15.2651 42.5273 17.3412 42.8955C19.0349 43.1959 22.3923 44.0992 25.1551 44.8763C27.2633 45.4693 29.4358 43.8491 29.7417 41.7559C29.9648 40.2292 30.3833 38.5023 31.1544 36.9193L31.1368 36.9254C29.8307 33.4205 28.1694 31.1573 26.4274 29.7121C24.6909 28.2715 22.8212 27.5993 21.0159 27.355C18.0143 26.9488 15.2644 27.7079 13.5322 28.1978C14.5697 32.3571 14.2504 37.251 10.7562 42.3173Z" fill="white"/>
<path d="M32.4906 34.7586C34.224 32.2413 35.4587 30.2835 36.1103 29.2221C36.4362 28.6911 36.3772 28.0255 35.9911 27.5332C34.9853 26.2505 33.0607 23.6439 32.0122 21.2304C30.9341 18.7491 30.7732 14.8966 30.7641 13.0203C30.7606 12.307 30.5256 11.6103 30.0672 11.0499L23.8366 3.4325C23.8147 3.77585 23.7634 4.11647 23.6892 4.45396C23.4819 5.39706 23.0907 6.33592 22.6446 7.2638C22.3831 7.80765 22.0809 8.3903 21.7757 8.97892C21.5725 9.37069 21.3679 9.76517 21.173 10.1525C20.1657 12.1553 19.2284 14.3288 18.9664 16.8828C18.7235 19.2502 19.0559 22.0035 20.5532 25.2905C20.8026 25.3109 21.0536 25.3377 21.3057 25.3719C23.4545 25.6627 25.7099 26.4727 27.7862 28.1953C29.5708 29.6759 31.1834 31.7974 32.4906 34.7586Z" fill="white"/>
<path d="M45.8563 22.6485C45.8563 13.086 51.3545 7.2 60.1353 7.2C65.8651 7.2 70.4326 9.954 72.117 13.8375C72.4348 14.5485 72.5166 15.0885 72.5166 15.633C72.5166 17.0505 71.5677 17.991 70.1148 17.991C68.9343 17.991 68.1125 17.469 67.4406 16.2585C65.9242 13.275 63.4588 11.772 60.1535 11.772C54.678 11.772 51.4136 15.7995 51.4136 22.5855C51.4136 29.3715 54.8233 33.7545 60.3033 33.7545C64.8935 33.7545 68.0762 30.8745 68.1579 26.658L68.1806 26.1585H62.7869C61.4384 26.1585 60.5122 25.3665 60.5122 24.093C60.5122 22.8195 61.4384 22.0455 62.7869 22.0455H70.7913C72.4757 22.0455 73.4882 23.0895 73.4882 24.8445V25.47C73.4882 33.2955 68.6437 38.3265 60.2398 38.3265C51.3727 38.3265 45.8563 32.355 45.8563 22.6485Z" fill="white"/>
<path d="M76.73 26.9055C76.73 19.8495 80.8343 15.3 87.2815 15.3C93.3881 15.3 97.5606 19.602 97.5606 25.614C97.5606 27.1575 96.6752 28.0755 95.1179 28.0755H81.9558V28.242C81.9558 31.9365 84.126 34.317 87.5357 34.317C89.8967 34.317 91.4313 33.5025 93.1157 31.374C93.665 30.7665 94.1463 30.537 94.8864 30.537C96.0668 30.537 96.993 31.2885 96.993 32.5395C96.993 32.9355 96.8659 33.3945 96.6344 33.8535C95.1588 36.6705 91.8308 38.322 87.5766 38.322C80.7526 38.322 76.73 34.083 76.73 26.9055ZM92.421 24.651C92.3166 21.438 90.2508 19.3275 87.3042 19.3275C84.3576 19.3275 82.2055 21.4785 81.9966 24.651H92.421Z" fill="white"/>
<path d="M100.793 35.5455V17.9505C100.793 16.2585 101.824 15.3 103.299 15.3C104.775 15.3 105.828 16.2585 105.828 17.9505V19.5795H105.933C106.9 17.01 109.261 15.3225 112.294 15.3225C115.327 15.3225 117.706 16.929 118.527 19.7685H118.654C119.731 17.0325 122.382 15.3225 125.606 15.3225C130.01 15.3225 132.893 18.2655 132.893 22.6935V35.55C132.893 37.2825 131.839 38.286 130.282 38.286C128.725 38.286 127.649 37.2825 127.649 35.55V23.9625C127.649 21.249 126.218 19.7055 123.649 19.7055C121.079 19.7055 119.395 21.5415 119.395 24.192V35.5455C119.395 37.278 118.405 38.2815 116.847 38.2815C115.29 38.2815 114.3 37.278 114.3 35.5455V23.688C114.3 21.2265 112.784 19.701 110.341 19.701C107.899 19.701 106.046 21.6405 106.046 24.3135V35.5455C106.046 37.278 104.97 38.2815 103.413 38.2815C101.856 38.2815 100.802 37.278 100.802 35.5455H100.793Z" fill="white"/>
<path d="M138.023 27.0675C138.023 25.6275 139.099 24.75 140.529 24.75H150.05C151.503 24.75 152.556 25.6275 152.556 27.0675C152.556 28.5075 151.503 29.385 150.05 29.385H140.529C139.099 29.385 138.023 28.5075 138.023 27.0675Z" fill="white"/>
<path d="M158 35.55V9.936C158 8.181 159.094 7.2 160.633 7.2C162.173 7.2 163.244 8.181 163.244 9.936V19.413H163.371C164.656 16.8255 167.185 15.237 170.363 15.237C175.984 15.237 179.566 19.5975 179.566 26.676C179.566 33.7545 176.007 38.0925 170.34 38.0925C167.076 38.0925 164.57 36.5265 163.244 33.957H163.14V35.5455C163.14 37.215 162.064 38.1555 160.547 38.1555C159.031 38.1555 158 37.2375 158 35.5455V35.55ZM174.195 26.6805C174.195 22.2975 172.088 19.521 168.742 19.521C165.396 19.521 163.226 22.383 163.226 26.6805C163.226 30.978 165.501 33.84 168.742 33.84C171.984 33.84 174.195 31.086 174.195 26.6805Z" fill="white"/>
<path d="M183.425 31.563C183.425 27.639 186.481 25.281 191.911 24.9435L197.832 24.6105V23.022C197.832 20.7045 196.252 19.368 193.664 19.368C191.621 19.368 190.295 20.0565 188.987 21.9555C188.438 22.6665 187.743 22.9995 186.858 22.9995C185.573 22.9995 184.647 22.1625 184.647 20.9115C184.647 20.43 184.774 19.971 185.005 19.494C186.14 16.9245 189.596 15.3 193.872 15.3C199.412 15.3 203.012 18.2025 203.012 22.6485V35.694C203.012 37.3635 201.936 38.304 200.465 38.304C198.994 38.304 198.045 37.449 197.959 35.9055V34.362H197.854C196.569 36.7605 193.768 38.2455 190.885 38.2455C186.567 38.2455 183.43 35.5545 183.43 31.5675L183.425 31.563ZM197.832 29.682V27.99L192.651 28.305C190.122 28.4715 188.669 29.601 188.669 31.3515C188.669 33.102 190.209 34.317 192.483 34.317C195.43 34.317 197.832 32.355 197.832 29.682V29.682Z" fill="white"/>
<path d="M206.581 35.55V17.9325C206.581 16.326 207.529 15.3 209.087 15.3C210.644 15.3 211.679 16.3215 211.679 17.9325V19.476H211.784C212.982 16.848 215.302 15.3225 218.735 15.3225C223.661 15.3225 226.462 18.4545 226.462 23.5665V35.55C226.462 37.305 225.386 38.286 223.852 38.286C222.317 38.286 221.218 37.305 221.218 35.55V24.6105C221.218 21.4785 219.743 19.7235 216.755 19.7235C213.768 19.7235 211.829 21.8745 211.829 25.047V35.5455C211.829 37.3005 210.735 38.2815 209.196 38.2815C207.657 38.2815 206.585 37.3005 206.585 35.5455L206.581 35.55Z" fill="white"/>
<path d="M230.19 35.424V9.936C230.19 8.181 231.284 7.2 232.823 7.2C234.362 7.2 235.434 8.181 235.434 9.936V24.7545H235.497L244.26 16.173C244.932 15.462 245.504 15.1695 246.303 15.1695C247.611 15.1695 248.6 16.1505 248.6 17.4015C248.6 18.1755 248.369 18.6525 247.652 19.323L241.291 25.2945L248.283 33.957C248.832 34.7085 249 35.1675 249 35.838C249 37.1925 247.969 38.1555 246.516 38.1555C245.486 38.1555 244.873 37.8 244.115 36.7155L237.418 28.305L235.438 30.141V35.424C235.438 37.179 234.362 38.16 232.828 38.16C231.293 38.16 230.194 37.179 230.194 35.424H230.19Z" fill="white"/>
</svg>
