<svg width="41" height="43" viewBox="0 0 41 43" fill="none" xmlns="http://www.w3.org/2000/svg">
<path d="M27.5354 0C20.5163 0 15.0193 3.54212 15.0193 8.0625V12.6975C14.2116 12.5954 13.3755 12.5417 12.5161 12.5417C5.49706 12.5417 0 16.0838 0 20.6042V34.9375C0 39.4579 5.49706 43 12.5161 43C18.2167 43 22.9144 40.6637 24.4764 37.3634C25.4727 37.5193 26.4907 37.625 27.5354 37.625C34.5544 37.625 40.0514 34.0829 40.0514 29.5625V8.0625C40.0514 3.54212 34.5544 0 27.5354 0ZM27.5354 3.58333C32.7888 3.58333 36.7138 5.94833 36.7138 8.0625C36.7138 10.1767 32.7888 12.5417 27.5354 12.5417C22.2819 12.5417 18.3569 10.1767 18.3569 8.0625C18.3569 5.94833 22.2819 3.58333 27.5354 3.58333ZM12.5161 16.125C17.7695 16.125 21.6945 18.49 21.6945 20.6042C21.6945 22.7183 17.7695 25.0833 12.5161 25.0833C7.26266 25.0833 3.33762 22.7183 3.33762 20.6042C3.33762 18.49 7.26266 16.125 12.5161 16.125ZM3.33762 26.1261C5.6072 27.6938 8.8497 28.6667 12.5161 28.6667C16.1824 28.6667 19.4249 27.6938 21.6945 26.1261V27.7708C21.6945 29.885 17.7695 32.25 12.5161 32.25C7.26266 32.25 3.33762 29.885 3.33762 27.7708V26.1261ZM12.5161 39.4167C7.26266 39.4167 3.33762 37.0517 3.33762 34.9375V33.2928C5.6072 34.8605 8.8497 35.8333 12.5161 35.8333C16.1824 35.8333 19.4249 34.8605 21.6945 33.2928V34.9375C21.6945 37.0517 17.7695 39.4167 12.5161 39.4167ZM27.5354 34.0417C26.6776 34.0417 25.8465 33.9575 25.0321 33.8338V30.2863C25.8532 30.3902 26.6843 30.4583 27.5354 30.4583C31.2017 30.4583 34.4442 29.4855 36.7138 27.9177V29.5625C36.7138 31.6767 32.7888 34.0417 27.5354 34.0417ZM27.5354 26.875C26.6776 26.875 25.8465 26.7908 25.0321 26.6672V23.1197C25.8532 23.2236 26.6843 23.2917 27.5354 23.2917C31.2017 23.2917 34.4442 22.3188 36.7138 20.7511V22.3958C36.7138 24.51 32.7888 26.875 27.5354 26.875ZM27.5354 19.7083C26.6309 19.7083 25.7564 19.617 24.902 19.4808C24.5716 17.8916 23.5519 16.4636 22.03 15.3223C23.6854 15.833 25.5445 16.1268 27.5354 16.1268C31.2017 16.1268 34.4442 15.1539 36.7138 13.5862V15.231C36.7138 17.3451 32.7888 19.7101 27.5354 19.7101V19.7083Z" fill="#333333"/>
</svg>
