<svg width="41" height="43" viewBox="0 0 41 43" fill="none" xmlns="http://www.w3.org/2000/svg">
<path d="M16.4282 38.0478L10.9527 26.4181L0 20.6042L10.9527 14.7902L16.4282 3.1605L21.9038 14.7902L32.8565 20.6042L21.9038 26.4181L16.4282 38.0478ZM7.54592 20.6042L13.4669 23.7485L16.4282 30.0355L19.3896 23.7485L25.3106 20.6042L19.3896 17.4598L16.4282 11.1728L13.4669 17.4598L7.54592 20.6042ZM29.9272 37.625L32.4583 43L34.9893 37.625L40.0514 34.9375L34.9893 32.25L32.4583 26.875L29.9272 32.25L24.8651 34.9375L29.9272 37.625ZM32.1765 8.36171L34.1456 12.5417L36.1148 8.36171L40.0514 6.27083L36.1148 4.17996L34.1456 0L32.1765 4.17996L28.2398 6.27083L32.1765 8.36171Z" fill="#333333"/>
</svg>
