<svg width="41" height="43" viewBox="0 0 41 43" fill="none" xmlns="http://www.w3.org/2000/svg">
<path d="M30.0394 21.5C30.0394 22.489 29.2918 23.2917 28.3707 23.2917C27.4496 23.2917 26.7021 22.489 26.7021 21.5C26.7021 20.511 27.4496 19.7083 28.3707 19.7083C29.2918 19.7083 30.0394 20.511 30.0394 21.5ZM11.684 8.95833C12.6051 8.95833 13.3527 8.15746 13.3527 7.16667C13.3527 5.19046 14.8495 3.58333 16.69 3.58333C18.5306 3.58333 20.0274 5.19046 20.0274 7.16667C20.0274 8.15746 20.7749 8.95833 21.6961 8.95833C22.6172 8.95833 23.3647 8.15746 23.3647 7.16667C23.3647 3.21425 20.3711 0 16.69 0C13.009 0 10.0154 3.21425 10.0154 7.16667C10.0154 8.15746 10.7629 8.95833 11.684 8.95833ZM40.0514 23.2917V26.875C40.0514 28.8566 38.8033 30.0624 37.435 30.3759C36.332 33.3393 34.3112 35.8423 31.7081 37.4602V37.625C31.7081 40.5884 29.462 43 26.7021 43C24.5261 43 22.6706 41.5022 21.9814 39.4167H18.0717C17.3825 41.5022 15.527 43 13.351 43C10.5911 43 8.34502 40.5884 8.34502 37.625V37.4835C3.94807 34.7619 1.36664 29.6413 1.69871 24.1337C1.80383 22.3815 2.21599 20.717 2.87512 19.1959C1.17808 18.3341 0 16.4797 0 14.3333C0 11.3699 2.24603 8.95833 5.00601 8.95833C5.92712 8.95833 6.67468 9.75921 6.67468 10.75C6.67468 11.7408 5.92712 12.5417 5.00601 12.5417C4.08491 12.5417 3.33734 13.3443 3.33734 14.3333C3.33734 15.213 3.93139 15.9458 4.71066 16.0963C7.2487 12.8301 11.14 10.75 15.4619 10.75H24.411C25.6341 8.10192 27.9185 6.24933 30.9639 5.47175C31.95 5.22271 32.9713 5.46637 33.7689 6.14183C34.5782 6.82983 35.0438 7.85825 35.0438 8.9655V15.6215C36.0583 16.8596 36.8693 18.275 37.4333 19.7907C38.8033 20.1043 40.0514 21.3101 40.0514 23.2917ZM36.7141 23.2917H36.2235C35.4859 23.2917 34.8352 22.7703 34.6249 22.0106C34.1677 20.3623 33.3233 18.8286 32.1836 17.5727C31.8783 17.2376 31.7081 16.7879 31.7081 16.3221V8.9655C30.0811 9.38117 27.9285 10.4526 27.0959 13.149C26.8606 13.9069 26.1731 14.4283 25.4439 14.3745C25.3304 14.3692 15.4652 14.3351 15.4652 14.3351C9.95362 14.3351 5.36978 18.7408 5.03104 24.3667C4.76405 28.7903 7.00174 32.8807 10.7329 34.7852C11.3153 35.0826 11.684 35.7133 11.684 36.4031V37.6268C11.684 38.6158 12.4333 39.4185 13.3527 39.4185C14.2721 39.4185 15.0214 38.6158 15.0214 37.6268C15.0214 36.6378 15.7689 35.8351 16.69 35.8351H23.3647C24.2858 35.8351 25.0334 36.636 25.0334 37.6268C25.0334 38.6176 25.7826 39.4185 26.7021 39.4185C27.6215 39.4185 28.3707 38.6158 28.3707 37.6268V36.3834C28.3707 35.6936 28.7395 35.0647 29.3202 34.7673C31.8933 33.4486 33.8256 31.0388 34.6249 28.1596C34.8352 27.4 35.4859 26.8786 36.2235 26.8786H36.7141V23.2952V23.2917Z" fill="#333333"/>
</svg>
